<?xml version="1.0" encoding="utf-8"?>
<!-- Generator: Adobe Illustrator 27.0.0, SVG Export Plug-In . SVG Version: 6.00 Build 0)  -->
<svg version="1.1" id="Layer_2" xmlns="http://www.w3.org/2000/svg" xmlns:xlink="http://www.w3.org/1999/xlink" x="0px" y="0px"
	 viewBox="0 0 375.8 1830.3" style="enable-background:new 0 0 375.8 1830.3;" xml:space="preserve">
<style type="text/css">
	.st0{fill:#0041DB;}
</style>
<path class="st0" d="M187.9,1802.2c15.7-1.5,94.2-101.4,94.9-143.3c0.5-31.4-20-59.7-47.7-70.6c28.2-13.5,49.6-41.1,48.4-74.3
	l0.2-14c0.1-3.5,0.1-7-3.3-10.5c-5.2-5.3-6.8-10.6-6.7-17.6l0.1-7c-1.7-5.3,1.9-12.2,5.5-15.6c1.8-1.7,3.6-6.9,3.7-10.4l0.8-361.3
	l24.4,0.4c3.5,0.1,8.8-1.6,12.3-5l28.4-27.5c3.5-3.4,3.6-6.9,3.7-10.4l1.1-169.3c5.3-1.7,8.9-8.6,9-15.6l0.8-45.4
	c0.1-7-3.3-10.5-8.5-15.9l0.4-340.4c3.5-3.4,8.9-8.6,3.8-17.4l0.8-45.4c0.1-7-3.3-10.5-8.5-15.9l0.6-137.9c1.8-1.7,0.1-7-1.6-8.8
	l-27.3-35.4c-1.7-5.3-6.9-7.1-13.8-7.2l-27.9-0.5l0.3-90.2c0.2-51.4-42.7-92.5-94.1-90.1c-0.6,0-1.2,0.1-1.8,0.1
	C137.7,2.4,100,41.8,99.9,89.7l-0.2,87.7l-27.9-0.5c-5.3,1.7-10.5,3.3-14.1,6.7l-28.5,34.4c0,3.5-1.8,5.2-1.9,8.7l-0.6,137.9
	c-7,3.4-12.4,12-12.5,19l-0.8,45.4c1.6,8.8,5,15.8,11.9,19.4L25,785.4c-7,3.4-12.4,12-12.5,19l2.8,45.4c1.6,8.8,5,15.8,11.9,19.4
	l-1,165.8c-0.1,3.5-0.1,7,3.3,10.5l25.7,26.6c3.4,3.6,8.7,5.4,12.1,5.4l27.9,0.5l-2.5,359.5c1.7,5.3,1.6,8.8,5,12.3
	c5.2,5.3,6.8,10.6,6.7,17.6l1.7,5.3c-0.1,7-3.7,13.9-7.3,17.3c-1.8,1.7-3.6,6.9-3.7,10.4l-0.2,14c1.2,33.2,18.2,61.4,47.6,74.1
	c-29.9,11.7-51.3,39.3-50.1,72.5l0,0C91.8,1702.9,170.4,1805.5,187.9,1802.2z"/>
</svg>
